<?xml version="1.0" encoding="UTF-8" standalone="no"?>
<svg width="22px" height="22px" viewBox="0 0 22 22" version="1.1" xmlns="http://www.w3.org/2000/svg" xmlns:xlink="http://www.w3.org/1999/xlink">
    <!-- Generator: Sketch 50.2 (55047) - http://www.bohemiancoding.com/sketch -->
    <title>fullscreen-on-24</title>
    <desc>Created with Sketch.</desc>
    <defs></defs>
    <g id="Icons" stroke="none" stroke-width="1" fill="none" fill-rule="evenodd">
        <g id="Gravity-Icons" transform="translate(-101.000000, -1068.000000)">
            <g id="fullscreen-on-24" transform="translate(100.000000, 1067.000000)">
                <rect id="trim" x="0" y="0" width="24" height="24"></rect>
                <path d="M2,10 C1.44771525,10 1,9.55228475 1,9 L1,4 C1,2.34314575 2.34314575,1 4,1 L9,1 C9.55228475,1 10,1.44771525 10,2 C10,2.55228475 9.55228475,3 9,3 L4,3 C3.44771525,3 3,3.44771525 3,4 L3,9 C3,9.55228475 2.55228475,10 2,10 Z" id="icon" fill="#6A7070"></path>
                <path d="M2,14 C2.55228475,14 3,14.4477153 3,15 L3,20 C3,20.5522847 3.44771525,21 4,21 L9,21 C9.55228475,21 10,21.4477153 10,22 C10,22.5522847 9.55228475,23 9,23 L4,23 C2.34314575,23 1,21.6568542 1,20 L1,15 C1,14.4477153 1.44771525,14 2,14 Z" id="icon" fill="#6A7070"></path>
                <path d="M22,10 C21.4477153,10 21,9.55228475 21,9 L21,4 C21,3.44771525 20.5522847,3 20,3 L15,3 C14.4477153,3 14,2.55228475 14,2 C14,1.44771525 14.4477153,1 15,1 L20,1 C21.6568542,1 23,2.34314575 23,4 L23,9 C23,9.55228475 22.5522847,10 22,10 Z" id="icon" fill="#6A7070"></path>
                <path d="M22,14 C22.5522847,14 23,14.4477153 23,15 L23,20 C23,21.6568542 21.6568542,23 20,23 L15,23 C14.4477153,23 14,22.5522847 14,22 C14,21.4477153 14.4477153,21 15,21 L20,21 C20.5522847,21 21,20.5522847 21,20 L21,15 C21,14.4477153 21.4477153,14 22,14 Z" id="icon" fill="#6A7070"></path>
            </g>
        </g>
    </g>
</svg>