<?xml version="1.0" encoding="UTF-8" standalone="no"?>
<svg width="16px" height="16px" viewBox="0 0 16 16" version="1.1" xmlns="http://www.w3.org/2000/svg" xmlns:xlink="http://www.w3.org/1999/xlink">
    <!-- Generator: Sketch 50.2 (55047) - http://www.bohemiancoding.com/sketch -->
    <title>fullscreen-on-18</title>
    <desc>Created with Sketch.</desc>
    <defs></defs>
    <g id="Icons" stroke="none" stroke-width="1" fill="none" fill-rule="evenodd">
        <g id="Gravity-Icons" transform="translate(-135.000000, -1074.000000)">
            <g id="fullscreen-on-18" transform="translate(134.000000, 1073.000000)">
                <rect id="trim" x="0" y="0" width="18" height="18"></rect>
                <path d="M1,6 L1,3 C1,1.8954305 1.8954305,1 3,1 L6,1 C6.55228475,1 7,1.44771525 7,2 C7,2.55228475 6.55228475,3 6,3 L3,3 L3,6 C3,6.55228475 2.55228475,7 2,7 C1.44771525,7 1,6.55228475 1,6 Z" id="icon" fill="#6A7070" fill-rule="nonzero"></path>
                <path d="M1,12 C1,11.4477153 1.44771525,11 2,11 C2.55228475,11 3,11.4477153 3,12 L3,15 L6,15 C6.55228475,15 7,15.4477153 7,16 C7,16.5522847 6.55228475,17 6,17 L3,17 C1.8954305,17 1,16.1045695 1,15 L1,12 Z" id="icon" fill="#6A7070" fill-rule="nonzero"></path>
                <path d="M17,6 C17,6.55228475 16.5522847,7 16,7 C15.4477153,7 15,6.55228475 15,6 L15,3 L12,3 C11.4477153,3 11,2.55228475 11,2 C11,1.44771525 11.4477153,1 12,1 L15,1 C16.1045695,1 17,1.8954305 17,3 L17,6 Z" id="icon" fill="#6A7070" fill-rule="nonzero"></path>
                <path d="M17,12 L17,15 C17,16.1045695 16.1045695,17 15,17 L12,17 C11.4477153,17 11,16.5522847 11,16 C11,15.4477153 11.4477153,15 12,15 L15,15 L15,12 C15,11.4477153 15.4477153,11 16,11 C16.5522847,11 17,11.4477153 17,12 Z" id="icon" fill="#6A7070" fill-rule="nonzero"></path>
            </g>
        </g>
    </g>
</svg>